<svg xmlns="http://www.w3.org/2000/svg" xmlns:xlink="http://www.w3.org/1999/xlink" width="70" height="69.999" viewBox="0 0 70 69.999"><defs><clipPath id="a"><rect width="56.107" height="53.366" fill="none"/></clipPath></defs><g transform="translate(-480 -40.52)"><ellipse cx="35" cy="35" rx="35" ry="35" transform="translate(480 40.52)" fill="#e6ebed"/><g transform="translate(486.947 49.836)"><g clip-path="url(#a)"><path d="M14.979,47.461a1.877,1.877,0,0,0-.725-2.142,24.294,24.294,0,0,1,2.867-41.71,1.841,1.841,0,0,0,.926-1.057l.054-.163A1.81,1.81,0,0,0,15.583.2,28.026,28.026,0,0,0,12.17,48.417,1.862,1.862,0,0,0,14.979,47.461Z" transform="translate(0 -0.001)" fill="#9aa3ab"/><path d="M228.766,31.42h0a1.883,1.883,0,0,0,.448,2.277,24.295,24.295,0,0,1-16.025,42.569h-.05a1.886,1.886,0,0,0-1.537.766l0,.007a1.867,1.867,0,0,0,1.483,2.969h.109a28.039,28.039,0,0,0,18.459-49.156,1.867,1.867,0,0,0-2.882.568" transform="translate(-185.135 -26.642)" fill="#9aa3ab"/><path d="M125.652,51.717l21.29-29.2a1.745,1.745,0,0,0-1.41-2.773h-8.5l8.842-17.2A1.745,1.745,0,0,0,144.327,0h-14.15a1.745,1.745,0,0,0-1.656,1.2l-8.5,25.6a1.745,1.745,0,0,0,1.656,2.295h8.711L123.2,50.45a1.4,1.4,0,0,0,2.451,1.268" transform="translate(-105.114 -0.001)"/></g></g></g></svg>