<svg viewBox="0 0 151.8 62.4" version="1.1" xmlns="http://www.w3.org/2000/svg">
  <defs>
    <style>
      .cls-1 {
        fill: #e91c24;
      }

      .cls-2 {
        fill: #1a2024;
      }
    </style>
  </defs>
  
  <g>
    <g id="Group_205728">
      <g>
        <path d="M73.7,22c-3.8-4.4-8.6-6.7-14.4-6.7s-10.6,2.2-14.4,6.7c-3.8,4.4-5.7,9.9-5.7,16.4s1.9,12,5.7,16.3c3.8,4.4,8.7,6.6,14.4,6.6s10.6-2.2,14.4-6.6c3.8-4.4,5.7-9.8,5.7-16.3s-1.9-12-5.7-16.4ZM72.9,38.3c0,4.7-1.3,8.6-3.9,11.7-2.6,3.1-5.7,4.5-9.6,4.5s-7.1-1.5-9.7-4.5c-2.6-3.1-4-7-4-11.7s1.3-8.7,4-11.8c2.6-3.1,5.8-4.6,9.7-4.6s7,1.5,9.6,4.6c2.6,3.1,4,7.1,4,11.7Z" class="cls-2"></path>
        <path d="M149.7,52.5c-3.3,1.3-6.2,2-8.6,2-3.8,0-4.9-.9-5.2-1.4-.5-.8-1-2.7-1-7.5v-24.4h13.8v-6.1h-13.8V1h-3.3l-4.2,4.7v9.5h-8.3l-6.9,6.1h15.2v29.8c0,3.2,1.3,5.8,3.7,7.6,2.4,1.8,5.3,2.7,8.8,2.7s7-.8,10.6-2.3l.7-.3v-6.9l-1.6.6Z" class="cls-2"></path>
        <path d="M93.1,15.5l-18,45.6h15.1l-4.2-9.5h28.9l-3.9,9.5h14.4l-17.9-45.6h-14.4ZM91.9,50.7l9-25.5,7.3,20.1-16.3,5.4Z" class="cls-1"></path>
        <path d="M18.2,15.2c-4.6.1-8.5,1.6-11.7,4.4V5.8S3.3,1,3.3,1H0v56.9l.7.3c4.6,2,9.2,3,14.2,3,7.4,0,12.8-2.1,16.8-6.5,4.1-4.5,6.1-10.7,6.1-18.4s-1.9-11.1-5.8-15.5c-3.3-3.7-9.7-5.8-13.7-5.7ZM31.7,36.8c-.1,5.4-1.9,10.6-4.5,13.1-2.7,3-7.3,4.7-12.5,4.7s-5.4-.2-8.2-1.2v-26c4.5-5.5,8.5-6.2,12.2-6.1,3.9,0,6.7,1.4,9.4,4.5.4.5,4,4.9,3.7,11Z" class="cls-2"></path>
      </g>
    </g>
  </g>
</svg>