<svg xmlns="http://www.w3.org/2000/svg" xmlns:xlink="http://www.w3.org/1999/xlink" width="70" height="69.999" viewBox="0 0 70 69.999"><defs><clipPath id="a"><rect width="25.591" height="30.727" fill="#1a2024"/></clipPath><clipPath id="b"><rect width="62.177" height="57.735" fill="#1a2024"/></clipPath></defs><g transform="translate(-123.233 -40.52)"><ellipse cx="35" cy="35" rx="35" ry="35" transform="translate(123.233 40.52)" fill="#e6ebed"/><g transform="translate(-1833.325 3082.298)"><g transform="translate(1978.763 -3023.326)"><g transform="translate(0 0)"><g clip-path="url(#a)"><path d="M25.591,1.635A1.541,1.541,0,0,0,23.549.07L8.989,3.986A2.919,2.919,0,0,0,6.947,6.65V23.393a5.086,5.086,0,0,0-3.941.143C.673,24.554-.562,26.884.248,28.739s3.358,2.533,5.691,1.514a4.585,4.585,0,0,0,3-4.207v-14.1a.809.809,0,0,1,.587-.746L23.012,7.939A.454.454,0,0,1,23.6,8.4V20.039a5.084,5.084,0,0,0-3.948.14c-2.333,1.019-3.568,3.348-2.758,5.2s3.358,2.533,5.691,1.514a4.658,4.658,0,0,0,3.006-4.008h0Z" transform="translate(0 0)" fill="#1a2024"/></g></g></g><g transform="translate(1960.469 -3036.831)"><g transform="translate(0 0)" clip-path="url(#b)"><path d="M31.921,3.472A25.433,25.433,0,0,1,55.484,19.4a.014.014,0,0,1-.01.019l-3.1.975a.885.885,0,0,0-.333,1.5l7.116,6.532a.885.885,0,0,0,1.462-.46l2.1-9.429A.884.884,0,0,0,61.589,17.5l-2.749.864a.014.014,0,0,1-.018-.009A28.893,28.893,0,0,0,4.348,20.271a1.74,1.74,0,0,0,1.665,2.251h0A1.744,1.744,0,0,0,7.678,21.3,25.44,25.44,0,0,1,31.921,3.472" transform="translate(-0.563 0)" fill="#9aa3ab"/><path d="M31.358,58.5A25.439,25.439,0,0,1,7.437,41.628a.016.016,0,0,1,.011-.02l2.988-.646A.885.885,0,0,0,10.9,39.5l-6.437-7.1a.885.885,0,0,0-1.5.324L.043,41.853a.884.884,0,0,0,1.029,1.135l2.914-.63a.014.014,0,0,1,.016.01,28.888,28.888,0,0,0,55.242-1.762,1.741,1.741,0,1,0-3.362-.906A25.441,25.441,0,0,1,31.358,58.5" transform="translate(0 -4.233)" fill="#9aa3ab"/></g></g></g></g></svg>