<svg viewBox="0 0 72 72" xmlns:xlink="http://www.w3.org/1999/xlink" xmlns="http://www.w3.org/2000/svg" data-name="Layer 1" id="Layer_1">
  <defs>
    <style>
      .cls-1 {
        fill: none;
      }

      .cls-2 {
        fill: #6a95a8;
      }

      .cls-3 {
        fill: #1a2024;
      }

      .cls-4 {
        clip-path: url(#clippath);
      }

      .cls-5 {
        fill: #d0d9de;
      }
    </style>
    <clipPath id="clippath">
      <rect height="49.05" width="38.86" y="6.07" x="16.73" class="cls-1"></rect>
    </clipPath>
  </defs>
  <g data-name="Group 334298" id="Group_334298">
    <ellipse ry="12.36" rx="12.33" cy="31.27" cx="36.2" class="cls-3" data-name="Ellipse 16268" id="Ellipse_16268"></ellipse>
    <g>
      <path d="M36.07,43.45c6.67.02,12.08-5.33,12.1-11.95,0-6.57-5.33-11.91-11.95-11.96-6.65-.05-12.08,5.26-12.13,11.86-.05,6.6,5.3,11.99,11.95,12.05,0,0,.02,0,.03,0ZM29.93,37.99c-.28-.21-.49-.5-.6-.83-.5-.98-.99-1.97-1.48-2.96-.54-.78-.34-1.85.45-2.39.79-.54,1.87-.34,2.41.45.09.14.17.29.22.44.17.34.34.66.59,1.14.12-.19.26-.37.4-.55,2.69-2.68,5.38-5.36,8.08-8.03.62-.71,1.7-.79,2.42-.17.27.23.46.54.54.88.16.64-.06,1.31-.56,1.74h0c-1.9,1.87-3.8,3.76-5.7,5.65-1.44,1.43-2.88,2.87-4.33,4.3-.58.76-1.67.91-2.44.34Z" class="cls-1"></path>
      <path d="M53.29,53.58h-10.41c-1.86,1.05-3.84,1.9-5.91,2.52-.6.18-1.24.16-1.83-.06-2.03-.67-3.93-1.49-5.7-2.46h-10.73c-1.46,0-2.64,1.18-2.64,2.64v5.78c0,1.46,1.18,2.64,2.64,2.64h34.58c1.46,0,2.64-1.18,2.64-2.64v-5.78c0-1.46-1.18-2.64-2.64-2.64Z" class="cls-3"></path>
      <path d="M42.39,27.71h0c.5-.43.72-1.1.56-1.74-.08-.34-.27-.65-.54-.88-.72-.62-1.8-.54-2.42.17-2.7,2.67-5.39,5.35-8.08,8.03-.15.17-.28.36-.4.55-.25-.49-.41-.81-.59-1.14-.05-.16-.13-.31-.22-.44-.54-.78-1.62-.98-2.41-.45-.79.54-.99,1.61-.45,2.39.49.98.98,1.97,1.48,2.96.11.33.32.62.6.83.77.57,1.86.42,2.44-.34,1.45-1.43,2.89-2.87,4.33-4.3,1.9-1.89,3.8-3.77,5.7-5.65Z" class="cls-2"></path>
    </g>
    <g data-name="Group 332139" id="Group_332139">
      <g class="cls-4">
        <g data-name="Group 332138" id="Group_332138">
          <path d="M55.57,16.35c.07-.93-.63-1.74-1.55-1.82-.09,0-.18,0-.26,0-2.8-.02-5.57-.57-8.17-1.6-3.24-1.15-6.04-3.28-8.02-6.09-.51-.79-1.56-1.01-2.34-.5-.2.13-.38.31-.51.51-.77,1.05-1.64,2.02-2.59,2.89-3.8,3.11-8.55,4.79-13.46,4.78-.95-.12-1.82.56-1.93,1.51-.02.15-.02.31,0,.46v16.64c-.03,2.6.53,5.17,1.63,7.52,3.49,7.25,9.3,11.78,16.81,14.28.58.22,1.21.24,1.79.06,5.97-1.78,11.18-5.5,14.82-10.57,2.39-3.14,3.71-6.95,3.77-10.9.06-5.74.02-11.46.01-17.19M36.06,42.47c-6.53-.05-11.79-5.4-11.74-11.94.05-6.55,5.39-11.81,11.92-11.76,6.5.05,11.74,5.35,11.74,11.86-.02,6.56-5.34,11.87-11.89,11.85,0,0-.02,0-.03,0" class="cls-5" data-name="Path 337461" id="Path_337461"></path>
          <path d="M42.3,26.85c-1.87,1.86-3.74,3.73-5.6,5.6-1.41,1.42-2.83,2.84-4.25,4.26-.57.75-1.64.9-2.39.33-.28-.21-.48-.5-.59-.83-.49-.97-.97-1.96-1.45-2.93-.53-.78-.33-1.84.44-2.37.78-.53,1.83-.33,2.37.44.09.14.17.28.22.44.17.33.33.65.58,1.13.12-.19.25-.37.39-.54,2.64-2.66,5.29-5.32,7.94-7.97.61-.71,1.67-.78,2.38-.17.26.23.45.53.53.87.16.63-.06,1.3-.55,1.72" class="cls-5" data-name="Path 337462" id="Path_337462"></path>
        </g>
      </g>
    </g>
  </g>
  <ellipse ry="14.96" rx="15.06" cy="30.93" cx="35.98" class="cls-3"></ellipse>
  <g>
    <path d="M22.44,33.67l3.57-2.91c1.16-.96,1.52-1.63,1.52-2.34,0-.85-.68-1.35-1.47-1.35-.95,0-1.67.5-2.37,1.35l-1.33-1.35c.96-1.28,2.19-1.99,3.75-1.99,2.06,0,3.56,1.34,3.56,3.25,0,1.37-.56,2.42-2.26,3.71l-1.76,1.44h4.11v1.97h-7.33v-1.78Z" class="cls-5"></path>
    <path d="M30.24,34.07l1.23-1.54c.72.73,1.61,1.2,2.54,1.2,1.09,0,1.76-.68,1.76-1.56s-.69-1.48-1.75-1.48c-.73,0-1.36.25-1.88.67l-1.4-.59.14-5.5h6.42v1.97h-4.5l-.06,2.26c.48-.36,1.1-.62,1.89-.62,1.72,0,3.2,1.16,3.2,3.24s-1.54,3.55-3.85,3.55c-1.62,0-2.85-.62-3.75-1.57Z" class="cls-5"></path>
    <path d="M38.28,27.78c0-1.47.97-2.63,2.43-2.63s2.41,1.17,2.41,2.61-.99,2.61-2.43,2.61-2.41-1.14-2.41-2.6ZM46.29,25.26h1.5l-6.75,10.19h-1.5l6.75-10.19ZM41.73,27.77c0-.79-.44-1.32-1.05-1.32s-1.02.52-1.02,1.32.45,1.34,1.03,1.34,1.03-.52,1.03-1.34ZM44.19,33.01c0-1.45.99-2.61,2.43-2.61s2.41,1.17,2.41,2.61-1,2.61-2.41,2.61-2.43-1.16-2.43-2.61ZM47.65,33.01c0-.8-.45-1.34-1.03-1.34-.62,0-1.05.52-1.05,1.34s.44,1.32,1.05,1.32,1.03-.52,1.03-1.32Z" class="cls-5"></path>
  </g>
  <g>
    <path d="M24.81,58.4v.96h2.42v.93h-2.42v1.06h2.67v.93h-3.71v-4.81h3.71v.93h-2.67Z" class="cls-5"></path>
    <path d="M31.4,59.87l1.77,2.42h-1.23l-1.15-1.58-1.16,1.58h-1.2l1.76-2.4-1.76-2.42h1.22l1.16,1.58,1.16-1.58h1.21l-1.77,2.4Z" class="cls-5"></path>
    <path d="M35.53,58.4h-1.5v-.93h4.03v.93h-1.5v3.88h-1.04v-3.88Z" class="cls-5"></path>
    <path d="M42.18,62.28l-1.1-1.56h-.76v1.56h-1.03v-4.81h2.17c1.04,0,1.81.67,1.81,1.62,0,.71-.43,1.27-1.09,1.51l1.18,1.68h-1.18ZM40.31,59.78h1.02c.51,0,.86-.27.86-.68s-.35-.68-.86-.68h-1.02v1.36Z" class="cls-5"></path>
    <path d="M47.78,61.53h-2.14l-.31.76h-1.16l1.96-4.81h1.16l1.96,4.81h-1.16l-.31-.76ZM47.42,60.65l-.71-1.76-.71,1.76h1.43Z" class="cls-5"></path>
  </g>
</svg>